<svg width="1200" height="630" viewBox="0 0 1200 630" fill="none" xmlns="http://www.w3.org/2000/svg">
  <defs>
    <linearGradient id="bg" x1="0" y1="0" x2="1200" y2="630" gradientUnits="userSpaceOnUse">
      <stop stop-color="#0B0F14"/>
      <stop offset="1" stop-color="#11161D"/>
    </linearGradient>
    <linearGradient id="accent" x1="160" y1="110" x2="1040" y2="520" gradientUnits="userSpaceOnUse">
      <stop stop-color="#7C8CFF"/>
      <stop offset="0.5" stop-color="#3DDC97"/>
      <stop offset="1" stop-color="#E8B339"/>
    </linearGradient>
  </defs>
  <rect width="1200" height="630" fill="url(#bg)"/>
  <circle cx="980" cy="130" r="220" fill="#7C8CFF" fill-opacity="0.08"/>
  <circle cx="210" cy="520" r="180" fill="#3DDC97" fill-opacity="0.08"/>
  <rect x="84" y="88" width="1032" height="454" rx="36" fill="#11161D" fill-opacity="0.72" stroke="#1E2630"/>
  <text x="140" y="205" fill="white" font-family="Inter, Arial, sans-serif" font-size="72" font-weight="700">sortlab</text>
  <text x="140" y="265" fill="#A9B4C4" font-family="Inter, Arial, sans-serif" font-size="28" font-weight="500">
    Sorting algorithm visualizer with sound, motion, and responsive canvas rendering.
  </text>
  <rect x="140" y="330" width="920" height="14" rx="7" fill="#1E2630"/>
  <rect x="140" y="330" width="180" height="14" rx="7" fill="#3DDC97"/>
  <rect x="334" y="286" width="56" height="92" rx="14" fill="#3DDC97"/>
  <rect x="408" y="258" width="56" height="120" rx="14" fill="#E8B339"/>
  <rect x="482" y="220" width="56" height="158" rx="14" fill="#7C8CFF"/>
  <rect x="556" y="270" width="56" height="108" rx="14" fill="#EF5B5B"/>
  <rect x="630" y="240" width="56" height="138" rx="14" fill="url(#accent)"/>
  <text x="140" y="460" fill="#7C8CFF" font-family="JetBrains Mono, Consolas, monospace" font-size="24" font-weight="600">
    React · TypeScript · Tailwind · Canvas · Web Audio
  </text>
</svg>
